<?xml version="1.0" encoding="UTF-8"?><svg xmlns="http://www.w3.org/2000/svg" xmlns:xlink="http://www.w3.org/1999/xlink" viewBox="0 0 842.88 317.24"><defs><style>.af{fill:url(#u);}.ag{fill:url(#t);}.ah{fill:url(#v);}.ai{fill:url(#e);}.aj{fill:url(#d);}.ak{fill:url(#f);}.al{fill:url(#s);}.am{fill:url(#q);}.an{fill:url(#h);}.ao{fill:url(#k);}.ap{fill:url(#j);}.aq{fill:url(#m);}.ar{fill:url(#l);}.as{fill:url(#n);}.at{fill:url(#c);}.au{fill:url(#b);}.av{fill:url(#w);}.aw{fill:url(#aa);}.ax{fill:url(#ab);}.ay{fill:url(#ad);}.b`{fill:url(#ae);}.ba{fill:url(#ac);}.bb{fill:none;}.bc{fill:#023f88;}.bd,.be,.bf,.bg,.bh,.bi,.bj{mix-blend-mode:overlay;}.be{fill:url(#p);}.bf{fill:url(#g);}.bg{fill:url(#i);}.bh{fill:url(#r);}.bi{fill:url(#y);}.bj{fill:url(#a`);}.bk{fill:url(#o);}.bk,.bl{mix-blend-mode:screen;}.bl{fill:url(#x);}.bm{isolation:isolate;}</style><linearGradient id="b" x1="185.51" y1="209.76" x2="435.95" y2="209.76" gradientTransform="matrix(1, 0, 0, 1, 0, 0)" gradientUnits="userSpaceOnUse"><stop offset=".54" stop-color="#00adee"/><stop offset=".92" stop-color="#4c54a3"/></linearGradient><linearGradient id="c" x1="185.51" y1="70.28" x2="472.23" y2="70.28" gradientTransform="matrix(1, 0, 0, 1, 0, 0)" gradientUnits="userSpaceOnUse"><stop offset=".54" stop-color="#00adee"/><stop offset=".89" stop-color="#4c54a3"/></linearGradient><linearGradient id="d" x1="192.09" y1="69.39" x2="27.25" y2="69.39" gradientTransform="matrix(1, 0, 0, 1, 0, 0)" gradientUnits="userSpaceOnUse"><stop offset=".27" stop-color="#00adee"/><stop offset=".89" stop-color="#4c54a3"/></linearGradient><linearGradient id="e" x1="27.6" y1="233.81" x2="274.83" y2="233.81" gradientTransform="matrix(1, 0, 0, 1, 0, 0)" gradientUnits="userSpaceOnUse"><stop offset="0" stop-color="#00adee"/><stop offset=".65" stop-color="#4c54a3"/></linearGradient><linearGradient id="f" x1="185.51" y1="205.25" x2="472.23" y2="205.25" xlink:href="#e"/><linearGradient id="g" x1="223.6" y1="252.18" x2="407.77" y2="180.56" gradientTransform="matrix(1, 0, 0, 1, 0, 0)" gradientUnits="userSpaceOnUse"><stop offset="0" stop-color="#00adee"/><stop offset=".24" stop-color="#02aaeb"/><stop offset=".4" stop-color="#0aa0e3"/><stop offset=".55" stop-color="#1791d6"/><stop offset=".69" stop-color="#2a7ac3"/><stop offset=".82" stop-color="#435eab"/><stop offset=".86" stop-color="#4c54a3"/></linearGradient><linearGradient id="h" x1="185.51" y1="70.47" x2="472.23" y2="70.47" xlink:href="#e"/><linearGradient id="i" x1="120.47" y1="70.47" x2="396.72" y2="70.47" gradientTransform="matrix(1, 0, 0, 1, 0, 0)" gradientUnits="userSpaceOnUse"><stop offset="0" stop-color="#00adee"/><stop offset=".37" stop-color="#4c54a3"/></linearGradient><linearGradient id="j" x1="27.6" y1="69.39" x2="274.83" y2="69.39" xlink:href="#e"/><linearGradient id="k" x1="120.47" y1="69.39" x2="396.72" y2="69.39" xlink:href="#e"/><linearGradient id="l" x1="27.6" y1="190.58" x2="274.83" y2="190.58" xlink:href="#e"/><linearGradient id="m" x1="120.47" y1="190.58" x2="396.72" y2="190.58" xlink:href="#e"/><linearGradient id="n" x1="185.51" y1="57.08" x2="472.23" y2="57.08" xlink:href="#e"/><linearGradient id="o" x1="27.6" y1="57.08" x2="274.83" y2="57.08" xlink:href="#e"/><linearGradient id="p" x1="197.78" y1="57.08" x2="260.87" y2="57.08" gradientTransform="matrix(1, 0, 0, 1, 0, 0)" gradientUnits="userSpaceOnUse"><stop offset="0" stop-color="#00adee"/><stop offset=".58" stop-color="#4759a6"/><stop offset=".81" stop-color="#4c54a3"/></linearGradient><linearGradient id="q" x1="185.51" y1="159.52" x2="472.23" y2="159.52" xlink:href="#e"/><linearGradient id="r" x1="120.47" y1="159.52" x2="396.72" y2="159.52" xlink:href="#i"/><linearGradient id="s" x1="366.18" y1="159.52" x2="163.25" y2="159.52" gradientTransform="matrix(1, 0, 0, 1, 0, 0)" gradientUnits="userSpaceOnUse"><stop offset=".09" stop-color="#00adee"/><stop offset=".16" stop-color="#0c9ee2"/><stop offset=".36" stop-color="#277ec6"/><stop offset=".55" stop-color="#3b66b3"/><stop offset=".73" stop-color="#4758a7"/><stop offset=".89" stop-color="#4c54a3"/></linearGradient><linearGradient id="t" x1="27.6" y1="142.96" x2="274.83" y2="142.96" xlink:href="#e"/><linearGradient id="u" x1="120.47" y1="142.96" x2="396.72" y2="142.96" xlink:href="#e"/><linearGradient id="v" x1="144.35" y1="142.96" x2="207.04" y2="142.96" xlink:href="#s"/><linearGradient id="w" x1="185.51" y1="132.05" x2="472.23" y2="132.05" xlink:href="#e"/><linearGradient id="x" x1="27.6" y1="132.05" x2="274.83" y2="132.05" xlink:href="#e"/><linearGradient id="y" x1="197.78" y1="132.05" x2="260.87" y2="132.05" xlink:href="#p"/><linearGradient id="a`" x1="173.9" y1="132.05" x2="226.2" y2="132.05" xlink:href="#e"/><linearGradient id="aa" x1="297.59" y1="131.46" x2="297.59" y2="106.3" xlink:href="#e"/><linearGradient id="ab" x1="323.79" y1="131.46" x2="323.79" y2="106.3" xlink:href="#e"/><linearGradient id="ac" x1="349.14" y1="131.46" x2="349.14" y2="106.3" xlink:href="#e"/><linearGradient id="ad" x1="374.78" y1="131.46" x2="374.78" y2="106.3" xlink:href="#e"/><linearGradient id="ae" x1="399.65" y1="131.46" x2="399.65" y2="106.3" xlink:href="#e"/></defs><g class="bm"><g id="a"><g><g><path class="bb" d="M344.33,215.54c17.41,0,14.06-18.08,14.06-18.08,0-3.82-.51-6.79-1.3-9.13-3.03,9.81-7.56,18.96-13.3,27.21h.54Z"/><path class="au" d="M395.81,142.92c.58,5.14,.91,10.35,.91,15.64,0,50-26.57,93.79-66.35,118.03h20.54c43.69,0,60.76-34.82,60.76-34.82,17.07-32.09,6.14-67.59,6.14-67.59-2.29-15.8-11.44-25.42-22-31.26Z"/><path class="at" d="M383.9,100.45h26.72l61.6-59.74c.98-.98-90.52-.55-141.93-.23,23.3,14.18,42.04,35.07,53.61,59.97Z"/><path class="aj" d="M188.27,39.69H27.6c4.19,4.23,58.94,59.4,58.94,59.4h47.37c11.84-24.78,30.86-45.46,54.36-59.4Z"/><path class="ai" d="M63.78,276.59h76.46l17.13-24.08c-15.84-17.05-27.4-38.11-33.04-61.49l-60.56,85.58Z"/><path class="ak" d="M396.72,158.56c0-5.29-.33-10.5-.91-15.64-14.65-8.11-32-8.97-37.6-9.03,2.12,8.06,3.26,16.51,3.26,25.24,0,10.17-1.54,19.97-4.39,29.21,.8,2.33,1.3,5.31,1.3,9.13,0,0,3.35,18.08-14.06,18.08h-.54c-17.87,25.67-47.57,42.49-81.22,42.49-16.95,0-32.9-4.27-46.85-11.79,29.92,31.63,72.37,30.35,72.37,30.35h42.27c39.79-24.24,66.35-68.03,66.35-118.03Z"/><path class="bf" d="M396.72,158.56c0-5.29-.33-10.5-.91-15.64-14.65-8.11-32-8.97-37.6-9.03,2.12,8.06,3.26,16.51,3.26,25.24,0,10.17-1.54,19.97-4.39,29.21,.8,2.33,1.3,5.31,1.3,9.13,0,0,3.35,18.08-14.06,18.08h-.54c-17.87,25.67-47.57,42.49-81.22,42.49-16.95,0-32.9-4.27-46.85-11.79,29.92,31.63,72.37,30.35,72.37,30.35h42.27c39.79-24.24,66.35-68.03,66.35-118.03Z"/><path class="an" d="M274.82,61.01c27.58,3.41,51.64,18.15,67.37,39.44h41.72c-11.57-24.9-30.31-45.79-53.61-59.97-20.05,.12-34,.23-34,.23-11.49,.5-21.65,2.23-30.59,4.71,7.85,5.09,9.03,12.23,9.12,15.58Z"/><path class="bg" d="M274.82,61.01c27.58,3.41,51.64,18.15,67.37,39.44h41.72c-11.57-24.9-30.31-45.79-53.61-59.97-20.05,.12-34,.23-34,.23-11.49,.5-21.65,2.23-30.59,4.71,7.85,5.09,9.03,12.23,9.12,15.58Z"/><path class="ap" d="M222.45,68.74c8.84-8.04,22.85-17.65,43.25-23.31-5.08-3.29-12.92-5.74-25.09-5.74h-52.34c-23.5,13.93-42.52,34.61-54.36,59.4h50.09c10.01-13.08,23.21-23.58,38.44-30.35Z"/><path class="ao" d="M222.45,68.74c8.84-8.04,22.85-17.65,43.25-23.31-5.08-3.29-12.92-5.74-25.09-5.74h-52.34c-23.5,13.93-42.52,34.61-54.36,59.4h50.09c10.01-13.08,23.21-23.58,38.44-30.35Z"/><path class="ar" d="M168.48,128.66l-44.13,62.36c5.63,23.38,17.2,44.44,33.04,61.49l25.14-35.33c-11.84-16.31-18.85-36.35-18.85-58.05,0-10.64,1.7-20.87,4.81-30.47Z"/><path class="aq" d="M168.48,128.66l-44.13,62.36c5.63,23.38,17.2,44.44,33.04,61.49l25.14-35.33c-11.84-16.31-18.85-36.35-18.85-58.05,0-10.64,1.7-20.87,4.81-30.47Z"/><path class="as" d="M262.58,60.23c4.15,0,8.23,.29,12.24,.78-.09-3.36-1.27-10.49-9.12-15.58-20.4,5.66-34.42,15.27-43.25,23.31,12.27-5.45,25.84-8.51,40.13-8.51Z"/><path class="bk" d="M262.58,60.23c4.15,0,8.23,.29,12.24,.78-.09-3.36-1.27-10.49-9.12-15.58-20.4,5.66-34.42,15.27-43.25,23.31,12.27-5.45,25.84-8.51,40.13-8.51Z"/><path class="be" d="M262.58,60.23c4.15,0,8.23,.29,12.24,.78-.09-3.36-1.27-10.49-9.12-15.58-20.4,5.66-34.42,15.27-43.25,23.31,12.27-5.45,25.84-8.51,40.13-8.51Z"/><path class="am" d="M343.79,215.54h-49.68s-34.82,3.35-47.54-35.49h99.77s7.64-.84,10.75,8.28c2.85-9.23,4.39-19.04,4.39-29.21,0-8.72-1.14-17.18-3.26-25.24-1.18-.01-1.85,.01-1.85,.01h-109.24c3.41-30.04,45.06-33.45,45.06-33.45h49.99c-15.72-21.3-39.79-36.04-67.37-39.44,.03,1.17-.07,1.89-.07,1.89v10.92c-.68,17.07-11.61,30.04-11.61,30.04l-71.15,100c7.13,22.1,17.59,35.18,17.59,35.18,1.97,2.58,4.03,4.97,6.14,7.2,13.94,7.51,29.9,11.79,46.85,11.79,33.65,0,63.35-16.82,81.22-42.49Z"/><path class="bh" d="M343.79,215.54h-49.68s-34.82,3.35-47.54-35.49h99.77s7.64-.84,10.75,8.28c2.85-9.23,4.39-19.04,4.39-29.21,0-8.72-1.14-17.18-3.26-25.24-1.18-.01-1.85,.01-1.85,.01h-109.24c3.41-30.04,45.06-33.45,45.06-33.45h49.99c-15.72-21.3-39.79-36.04-67.37-39.44,.03,1.17-.07,1.89-.07,1.89v10.92c-.68,17.07-11.61,30.04-11.61,30.04l-71.15,100c7.13,22.1,17.59,35.18,17.59,35.18,1.97,2.58,4.03,4.97,6.14,7.2,13.94,7.51,29.9,11.79,46.85,11.79,33.65,0,63.35-16.82,81.22-42.49Z"/><path class="al" d="M343.79,215.54h-49.68s-34.82,3.35-47.54-35.49h99.77s7.64-.84,10.75,8.28c2.85-9.23,4.39-19.04,4.39-29.21,0-8.72-1.14-17.18-3.26-25.24-1.18-.01-1.85,.01-1.85,.01h-109.24c3.41-30.04,45.06-33.45,45.06-33.45h49.99c-15.72-21.3-39.79-36.04-67.37-39.44,.03,1.17-.07,1.89-.07,1.89v10.92c-.68,17.07-11.61,30.04-11.61,30.04l-71.15,100c7.13,22.1,17.59,35.18,17.59,35.18,1.97,2.58,4.03,4.97,6.14,7.2,13.94,7.51,29.9,11.79,46.85,11.79,33.65,0,63.35-16.82,81.22-42.49Z"/><path class="ag" d="M210.27,82.7s3.72-6.27,12.18-13.96c-15.23,6.77-28.43,17.27-38.44,30.35h5.4l-20.93,29.57c-3.11,9.6-4.81,19.84-4.81,30.47,0,21.69,7,41.74,18.85,58.05l9.47-13.31c-9.16-28.38-12.82-71.65,18.28-121.17Z"/><path class="af" d="M210.27,82.7s3.72-6.27,12.18-13.96c-15.23,6.77-28.43,17.27-38.44,30.35h5.4l-20.93,29.57c-3.11,9.6-4.81,19.84-4.81,30.47,0,21.69,7,41.74,18.85,58.05l9.47-13.31c-9.16-28.38-12.82-71.65,18.28-121.17Z"/><path class="ah" d="M210.27,82.7s3.72-6.27,12.18-13.96c-15.23,6.77-28.43,17.27-38.44,30.35h5.4l-20.93,29.57c-3.11,9.6-4.81,19.84-4.81,30.47,0,21.69,7,41.74,18.85,58.05l9.47-13.31c-9.16-28.38-12.82-71.65,18.28-121.17Z"/><path class="av" d="M222.45,68.74c-8.46,7.7-12.18,13.96-12.18,13.96-31.1,49.52-27.44,92.78-18.28,121.17l71.15-100s10.92-12.97,11.61-30.04v-10.92s.1-.72,.07-1.89c-4.01-.5-8.09-.78-12.24-.78-14.29,0-27.86,3.06-40.13,8.51Z"/><path class="bl" d="M222.45,68.74c-8.46,7.7-12.18,13.96-12.18,13.96-31.1,49.52-27.44,92.78-18.28,121.17l71.15-100s10.92-12.97,11.61-30.04v-10.92s.1-.72,.07-1.89c-4.01-.5-8.09-.78-12.24-.78-14.29,0-27.86,3.06-40.13,8.51Z"/><path class="bi" d="M222.45,68.74c-8.46,7.7-12.18,13.96-12.18,13.96-31.1,49.52-27.44,92.78-18.28,121.17l71.15-100s10.92-12.97,11.61-30.04v-10.92s.1-.72,.07-1.89c-4.01-.5-8.09-.78-12.24-.78-14.29,0-27.86,3.06-40.13,8.51Z"/><path class="bj" d="M222.45,68.74c-8.46,7.7-12.18,13.96-12.18,13.96-31.1,49.52-27.44,92.78-18.28,121.17l71.15-100s10.92-12.97,11.61-30.04v-10.92s.1-.72,.07-1.89c-4.01-.5-8.09-.78-12.24-.78-14.29,0-27.86,3.06-40.13,8.51Z"/></g><g><path class="bc" d="M439.87,155.81v-50.89h20.03c4.43,0,7.97,.62,10.61,1.87,2.64,1.25,4.55,2.87,5.73,4.88,1.17,2.01,1.76,4.18,1.76,6.52,0,2.14-.49,3.97-1.48,5.49-.99,1.53-2.11,2.71-3.36,3.55s-2.31,1.36-3.16,1.56c.43,.1,.92,.25,1.48,.46,.56,.2,1.13,.43,1.72,.69,2.19,.92,4,2.34,5.45,4.27,1.44,1.93,2.16,4.27,2.16,7.02,0,5.24-1.88,8.98-5.65,11.21-3.77,2.24-8.85,3.36-15.26,3.36h-20.03Zm11.78-30.52h7.13c1.81,0,3.48-.42,5.01-1.26,1.52-.84,2.28-2.33,2.28-4.46,0-1.53-.36-2.69-1.08-3.51-.72-.81-1.64-1.39-2.76-1.72-1.12-.33-2.27-.5-3.44-.5h-7.13v11.44Zm0,21.67h7.85c1.17,0,2.47-.14,3.88-.42,1.42-.28,2.63-.89,3.64-1.83,1.01-.94,1.52-2.4,1.52-4.39,0-1.83-.49-3.23-1.48-4.2-.99-.97-2.19-1.61-3.6-1.95-1.42-.33-2.74-.5-3.96-.5h-7.85v13.27Z"/><path class="bc" d="M482.64,155.81l19.94-50.89h13.38l19.55,50.89h-13.22l-4.09-11.67h-18.83l-4.09,11.67h-12.66Zm19.55-20.6h13.14l-6.49-19.22-6.65,19.22Z"/><path class="bc" d="M541.28,155.81v-50.89h11.54l23.15,33.03v-33.03h11.94v50.89h-10.97l-23.71-33.64v33.64h-11.94Z"/><path class="bc" d="M625.95,137.12v-9.31h20.59v22.05c-2.78,2.24-6.02,3.99-9.73,5.26-3.71,1.27-7.94,1.91-12.7,1.91-5.82,0-10.81-1.13-14.98-3.4-4.16-2.26-7.36-5.39-9.57-9.38-2.22-3.99-3.32-8.58-3.32-13.77,0-3.81,.67-7.35,2-10.6,1.33-3.25,3.23-6.1,5.69-8.54,2.46-2.44,5.38-4.34,8.77-5.68,3.39-1.35,7.12-2.02,11.17-2.02,4.86,0,9.13,.85,12.82,2.56,3.68,1.71,6.7,4.08,9.05,7.13l-8.17,7.4c-1.66-1.93-3.52-3.51-5.61-4.73-2.08-1.22-4.62-1.83-7.61-1.83-3.26,0-6.05,.74-8.37,2.21-2.32,1.48-4.1,3.45-5.33,5.91-1.23,2.47-1.84,5.2-1.84,8.2,0,3.26,.71,6.09,2.12,8.51,1.41,2.42,3.32,4.29,5.73,5.61,2.4,1.32,5.13,1.98,8.17,1.98,2.14,0,4.09-.24,5.85-.73,1.76-.48,3.34-1.26,4.73-2.33v-6.41h-9.45Z"/><path class="bc" d="M656.23,155.81v-50.89h12.09v20.29l17.86-20.29h14.02l-18.34,19.84,20.83,31.05h-14.66l-14.26-22.2-5.45,5.8v16.4h-12.09Z"/><path class="bc" d="M728.32,157.11c-3.95,0-7.61-.67-10.97-2.02-3.37-1.35-6.32-3.24-8.85-5.68-2.54-2.44-4.5-5.29-5.89-8.54-1.39-3.25-2.08-6.76-2.08-10.53s.69-7.34,2.08-10.57c1.39-3.23,3.34-6.06,5.85-8.51,2.51-2.44,5.46-4.34,8.85-5.68,3.39-1.35,7.06-2.02,11.01-2.02s7.61,.67,10.97,2.02c3.36,1.35,6.31,3.24,8.85,5.68,2.54,2.44,4.5,5.28,5.89,8.51,1.39,3.23,2.08,6.75,2.08,10.57s-.7,7.27-2.08,10.53c-1.39,3.26-3.35,6.1-5.89,8.54-2.54,2.44-5.49,4.34-8.85,5.68-3.37,1.35-7.02,2.02-10.97,2.02Zm0-10.83c3.15,0,5.86-.74,8.13-2.21,2.27-1.47,4-3.43,5.21-5.87,1.2-2.44,1.8-5.11,1.8-8.01s-.6-5.56-1.8-7.97c-1.2-2.41-2.94-4.35-5.21-5.8-2.27-1.45-4.98-2.17-8.13-2.17s-5.86,.72-8.13,2.17c-2.27,1.45-4.02,3.38-5.25,5.8-1.23,2.42-1.84,5.07-1.84,7.97s.61,5.57,1.84,8.01c1.23,2.44,2.98,4.4,5.25,5.87,2.27,1.48,4.98,2.21,8.13,2.21Z"/><path class="bc" d="M764.45,155.81v-50.89h12.09v20.29l17.86-20.29h14.02l-18.34,19.84,20.83,31.05h-14.66l-14.26-22.2-5.45,5.8v16.4h-12.09Z"/><path class="bc" d="M439.87,228.78v-50.89h19.47c4.43,0,8.02,.78,10.77,2.33,2.75,1.55,4.77,3.57,6.05,6.07,1.28,2.49,1.92,5.16,1.92,8.01,0,3.61-.86,6.65-2.56,9.12-1.71,2.47-3.94,4.32-6.69,5.57-2.75,1.25-5.73,1.87-8.93,1.87h-8.25v17.93h-11.78Zm11.78-27.24h7.05c2.19,0,3.95-.66,5.29-1.98,1.33-1.32,2-3,2-5.04,0-2.14-.67-3.88-2-5.23-1.33-1.35-3.12-2.02-5.37-2.02h-6.97v14.27Z"/><path class="bc" d="M511.88,230.08c-3.95,0-7.61-.67-10.97-2.02-3.37-1.35-6.32-3.24-8.85-5.68-2.54-2.44-4.5-5.29-5.89-8.54-1.39-3.25-2.08-6.76-2.08-10.53s.69-7.34,2.08-10.57c1.39-3.23,3.34-6.06,5.85-8.51,2.51-2.44,5.46-4.34,8.85-5.68,3.39-1.35,7.06-2.02,11.01-2.02s7.61,.67,10.97,2.02c3.36,1.35,6.31,3.24,8.85,5.68,2.54,2.44,4.5,5.28,5.89,8.51,1.39,3.23,2.08,6.75,2.08,10.57s-.7,7.27-2.08,10.53c-1.39,3.26-3.35,6.1-5.89,8.54-2.54,2.44-5.49,4.34-8.85,5.68-3.37,1.35-7.02,2.02-10.97,2.02Zm0-10.83c3.15,0,5.86-.74,8.13-2.21,2.27-1.47,4-3.43,5.21-5.87,1.2-2.44,1.8-5.11,1.8-8.01s-.6-5.56-1.8-7.97c-1.2-2.41-2.94-4.35-5.21-5.8-2.27-1.45-4.98-2.17-8.13-2.17s-5.86,.72-8.13,2.17c-2.27,1.45-4.02,3.38-5.25,5.8-1.23,2.42-1.84,5.07-1.84,7.97s.61,5.57,1.84,8.01,2.98,4.4,5.25,5.87c2.27,1.48,4.98,2.21,8.13,2.21Z"/><path class="bc" d="M544.24,221.61l7.77-8.01c1.39,1.42,3.24,2.82,5.57,4.2,2.32,1.37,5.03,2.06,8.13,2.06,1.23,0,2.43-.22,3.6-.65,1.17-.43,2.15-1.07,2.92-1.91,.77-.84,1.16-1.84,1.16-3.01,0-1.88-.96-3.36-2.88-4.42-1.92-1.07-4.97-2.08-9.13-3.05-4.06-.97-7.42-2.67-10.09-5.11-2.67-2.44-4.01-5.59-4.01-9.46,0-2.85,.72-5.46,2.16-7.82,1.44-2.36,3.6-4.27,6.49-5.72,2.88-1.45,6.52-2.17,10.9-2.17,3.63,0,6.69,.45,9.17,1.33,2.48,.89,4.47,1.87,5.97,2.94,1.49,1.07,2.54,1.93,3.12,2.59l-6.97,7.32c-1.18-.86-2.72-1.84-4.65-2.94-1.92-1.09-4.19-1.64-6.81-1.64-1.71,0-3.3,.47-4.77,1.41-1.47,.94-2.2,2.07-2.2,3.4,0,1.73,.96,3.13,2.88,4.2s4.57,1.96,7.93,2.67c2.62,.61,5.14,1.53,7.57,2.75,2.43,1.22,4.42,2.92,5.97,5.11,1.55,2.19,2.32,5.04,2.32,8.54,0,3.05-.91,5.77-2.72,8.16-1.82,2.39-4.27,4.27-7.37,5.65s-6.57,2.06-10.41,2.06c-3.52,0-6.65-.41-9.37-1.22s-5.1-1.87-7.13-3.17c-2.03-1.3-3.74-2.66-5.13-4.08Z"/><path class="bc" d="M606.8,228.78v-40.74h-17.3v-10.15h46.7v10.15h-17.22v40.74h-12.18Z"/><path class="bc" d="M458.39,267.98v-4.5h13.31v14.41c-1.4,1.23-3.3,2.34-5.69,3.33-2.39,.99-5.48,1.49-9.28,1.49s-7.36-.82-10.24-2.47c-2.88-1.64-5.11-3.89-6.69-6.75-1.57-2.85-2.36-6.07-2.36-9.65,0-2.64,.45-5.1,1.36-7.4,.91-2.29,2.21-4.32,3.9-6.07,1.69-1.75,3.7-3.12,6.03-4.09,2.33-.98,4.92-1.46,7.77-1.46,2.69,0,5,.38,6.91,1.14,1.91,.76,3.52,1.69,4.81,2.79,1.29,1.1,2.29,2.16,3.02,3.17l-3.87,3.14c-.61-.83-1.39-1.68-2.33-2.55-.95-.87-2.1-1.6-3.47-2.19-1.37-.6-3.02-.89-4.95-.89-2.77,0-5.17,.65-7.2,1.95-2.03,1.3-3.58,3.03-4.67,5.2-1.08,2.17-1.62,4.57-1.62,7.21,0,2.78,.6,5.24,1.79,7.37,1.19,2.13,2.82,3.8,4.89,5.01,2.07,1.21,4.43,1.81,7.08,1.81,2.2,0,4.08-.24,5.63-.73,1.56-.49,2.86-1.13,3.93-1.92v-7.37h-8.08Z"/><path class="bc" d="M480.01,281.85v-36.14h12.12c3.22,0,5.8,.52,7.74,1.57,1.93,1.05,3.33,2.38,4.18,4.01,.85,1.63,1.28,3.31,1.28,5.04,0,2.31-.57,4.35-1.71,6.12-1.14,1.77-2.9,3.09-5.29,3.96l8.88,15.44h-6.15l-8.14-14.79h-7.62v14.79h-5.29Zm5.29-19.18h7.28c2.35,0,4.13-.56,5.35-1.68,1.21-1.12,1.82-2.62,1.82-4.5,0-1.99-.64-3.53-1.93-4.63-1.29-1.1-3.07-1.65-5.35-1.65h-7.17v12.46Z"/><path class="bc" d="M529.96,282.78c-2.73,0-5.27-.49-7.62-1.46-2.35-.98-4.4-2.34-6.14-4.09-1.74-1.75-3.11-3.77-4.1-6.07-.99-2.29-1.48-4.76-1.48-7.4s.48-5.1,1.45-7.4c.97-2.29,2.33-4.31,4.1-6.04,1.76-1.73,3.82-3.09,6.17-4.06,2.35-.98,4.89-1.46,7.62-1.46s5.27,.49,7.62,1.46c2.35,.98,4.41,2.33,6.17,4.06,1.76,1.73,3.14,3.75,4.12,6.04,.99,2.3,1.48,4.76,1.48,7.4s-.49,5.1-1.48,7.4-2.36,4.32-4.12,6.07c-1.76,1.75-3.82,3.12-6.17,4.09-2.35,.97-4.89,1.46-7.62,1.46Zm0-4.88c2.77,0,5.18-.65,7.23-1.95,2.05-1.3,3.64-3.02,4.78-5.17,1.14-2.15,1.71-4.51,1.71-7.07s-.56-4.98-1.68-7.13c-1.12-2.15-2.7-3.86-4.75-5.15-2.05-1.28-4.48-1.92-7.28-1.92s-5.18,.64-7.22,1.92c-2.05,1.28-3.63,3-4.75,5.15-1.12,2.15-1.68,4.52-1.68,7.13s.56,4.92,1.68,7.07c1.12,2.15,2.7,3.87,4.75,5.17,2.05,1.3,4.46,1.95,7.22,1.95Z"/><path class="bc" d="M556.19,268.09v-22.38h5.46v21.13c0,2.17,.29,4.08,.86,5.74,.57,1.66,1.55,2.95,2.96,3.87s3.36,1.38,5.86,1.38,4.45-.46,5.83-1.38c1.38-.92,2.36-2.21,2.93-3.87,.57-1.66,.85-3.58,.85-5.74v-21.13h5.46v22.38c0,2.75-.54,5.23-1.62,7.45-1.08,2.22-2.73,3.98-4.95,5.28-2.22,1.3-5.06,1.95-8.51,1.95s-6.3-.65-8.53-1.95c-2.24-1.3-3.9-3.06-4.98-5.28-1.08-2.22-1.62-4.71-1.62-7.45Z"/><path class="bc" d="M594.77,281.85v-36.14h12.01c2.58,0,4.71,.33,6.4,1s3.03,1.54,4.01,2.63c.98,1.08,1.69,2.27,2.1,3.55,.42,1.28,.63,2.54,.63,3.77,0,2.38-.55,4.4-1.65,6.04-1.1,1.64-2.62,2.88-4.55,3.71-1.94,.83-4.15,1.25-6.66,1.25h-6.89v14.2h-5.4Zm5.4-18.64h6.83c2.35,0,4.16-.58,5.43-1.73,1.27-1.16,1.91-2.73,1.91-4.71s-.66-3.63-1.96-4.82c-1.31-1.19-3.1-1.79-5.37-1.79h-6.83v13.06Z"/></g><g class="bd"><path class="aw" d="M300.98,120.95v9.7h-6.78v-9.7l-9.48-16.34h7.69l5.18,10.58,5.18-10.58h7.69l-9.48,16.34Z"/><path class="ax" d="M313.23,104.61h20.75v5.43h-13.97v4.56h12.76v5.25h-12.76v4.96h14.33v5.83h-21.12v-26.04Z"/><path class="ba" d="M345.69,104.61h6.89l9.74,26.04h-7.07l-1.6-4.67h-9.08l-1.64,4.67h-6.97l9.74-26.04Zm.44,16.34h5.91l-2.88-9.12h-.07l-2.95,9.12Z"/><path class="ay" d="M363.19,104.61h13.27c4.6,0,9.12,2.08,9.12,7.33,0,2.81-1.35,5.47-4.08,6.53v.07c2.77,.66,3.57,3.76,3.79,6.24,.07,1.09,.18,4.92,1.09,5.87h-6.71c-.58-.88-.69-3.43-.77-4.16-.18-2.63-.62-5.32-3.79-5.32h-5.14v9.48h-6.78v-26.04Zm6.78,11.31h5.69c2.04,0,3.14-1.09,3.14-3.06s-1.53-2.81-3.43-2.81h-5.4v5.87Z"/><path class="b`" d="M395.11,121.9c.15,3.06,2.04,4.05,4.92,4.05,2.04,0,4.16-.73,4.16-2.66,0-2.3-3.72-2.73-7.48-3.79-3.72-1.06-7.62-2.73-7.62-7.51,0-5.69,5.73-7.91,10.61-7.91,5.18,0,10.39,2.52,10.43,8.39h-6.78c.11-2.37-2.11-3.14-4.19-3.14-1.46,0-3.28,.51-3.28,2.22,0,2.01,3.76,2.37,7.55,3.43,3.76,1.06,7.55,2.81,7.55,7.51,0,6.6-5.62,8.72-11.34,8.72s-11.27-2.63-11.31-9.3h6.78Z"/></g></g></g></g></svg>